<?xml version="1.0" encoding="utf-8"?>
<!-- Generator: Adobe Illustrator 25.0.0, SVG Export Plug-In . SVG Version: 6.00 Build 0)  -->
<svg version="1.1" id="Layer_1" xmlns="http://www.w3.org/2000/svg" xmlns:xlink="http://www.w3.org/1999/xlink" x="0px" y="0px"
	 viewBox="0 0 408.1 115.3" style="enable-background:new 0 0 408.1 115.3;" xml:space="preserve">
<style type="text/css">
	.st0{fill:#243782;}
	.st1{fill:none;stroke:#283980;stroke-width:0.5;stroke-miterlimit:10;}
	.st2{fill:#42A99F;}
</style>
<g>
	<g>
		<path class="st0" d="M144.1,50.4h20.1l-1.3,3.4h-24.1V30.5h5.3V50.4z M121.6,33.9l1.3-3.4H96.1v23.3h25.5l1.3-3.4h-21.5v-6.6h15.1
			l1.3-3.4h-16.3v-6.4L121.6,33.9L121.6,33.9z M49.1,33.9h15.1v19.9h5.3V33.9h13.7l1.3-3.4H50.4L49.1,33.9z M352.2,53.6h5.3V30.5
			h-5.3V53.6z M30.7,40.2H14.4c-2,0-3.2-1.3-3.2-2.9v-0.7c0-1.7,1.4-2.8,3.2-2.8h21.9l1.3-3.4H12.8c-4.5,0.1-6.7,3-6.8,5.9v1.5
			c0.1,3,2.4,6.1,6.9,6.1h16.2c2,0,3.2,1.3,3.2,2.9v0.7c0,1.7-1.4,2.8-3.2,2.8H7.3L6,53.8h24.7c4.5-0.1,6.7-3,6.8-5.9v-1.5
			C37.5,43.3,35.2,40.2,30.7,40.2z M396.6,40.2h-16.2c-2,0-3.2-1.3-3.2-2.9v-0.7c0-1.7,1.4-2.8,3.2-2.8h21.9l1.3-3.4h-24.7
			c-4.5,0.1-6.7,3-6.8,5.9v1.5c0,3,2.4,6.1,6.9,6.1h16.2c2,0,3.2,1.3,3.2,2.9v0.7c0,1.7-1.4,2.8-3.2,2.8h-21.9l-1.3,3.4h24.7
			c4.5-0.1,6.7-3,6.8-5.9v-1.5C403.4,43.3,401.1,40.2,396.6,40.2z M289.6,47.7l-22.2-17.3h-5.3v23.1h5.3V36.3l22.2,17.3h5.3V30.5
			h-5.3V47.7z M213.4,53.6h5.7l12.8-23.1h-5.7L213.4,53.6z M232.7,30.5l12.8,23.1h5.7l-12.8-23.1H232.7z M183.5,30.5h-5.3v23.3h24.1
			l1.3-3.4h-20.1V30.5z M305.7,33.9h15.1v19.9h5.3V33.9h13.7l1.3-3.4h-34.1L305.7,33.9z M208.1,54.6c-1.3,0-2.4,1.1-2.4,2.4
			s1.1,2.4,2.4,2.4s2.4-1.1,2.4-2.4S209.4,54.6,208.1,54.6z M214.5,61.7c-1.3,0-2.4,1.1-2.4,2.4s1.1,2.4,2.4,2.4s2.4-1.1,2.4-2.4
			C216.9,62.8,215.9,61.7,214.5,61.7z M259,57c0-1.3-1.1-2.4-2.4-2.4c-1.3,0-2.4,1.1-2.4,2.4s1.1,2.4,2.4,2.4
			C257.9,59.4,259,58.3,259,57z M250.2,61.9c-1.3,0-2.4,1.1-2.4,2.4s1.1,2.4,2.4,2.4s2.4-1.1,2.4-2.4
			C252.6,63,251.5,61.9,250.2,61.9z M241.9,66.7c-1.3,0-2.4,1.1-2.4,2.4c0,1.3,1.1,2.4,2.4,2.4s2.4-1.1,2.4-2.4
			C244.3,67.8,243.2,66.7,241.9,66.7z M225.1,69.1c0-1.3-1.1-2.4-2.4-2.4s-2.4,1.1-2.4,2.4c0,1.3,1.1,2.4,2.4,2.4
			C224,71.5,225.1,70.5,225.1,69.1z M189.8,36.7c-0.7,0.1-1.2,0.7-1.1,1.3s0.7,1.2,1.3,1.1s1.2-0.7,1.1-1.3S190.5,36.6,189.8,36.7z
			 M195.2,60.2c-0.7,0.1-1.2,0.7-1.1,1.3s0.7,1.2,1.3,1.1s1.2-0.7,1.1-1.3C196.5,60.6,195.9,60.1,195.2,60.2z M204.9,70.3
			c-0.7,0.1-1.2,0.6-1.1,1.3c0.1,0.7,0.7,1.2,1.3,1.1s1.2-0.6,1.1-1.3C206.1,70.8,205.5,70.3,204.9,70.3z M217.8,76.8
			c-0.7,0.1-1.2,0.6-1.1,1.3c0.1,0.7,0.7,1.2,1.3,1.1s1.2-0.6,1.1-1.3C219.1,77.3,218.5,76.8,217.8,76.8z M232.2,78.5
			c-0.7,0.1-1.2,0.6-1.1,1.3c0.1,0.7,0.7,1.2,1.3,1.1s1.2-0.6,1.1-1.3C233.5,78.9,232.9,78.4,232.2,78.5z M247.2,76.4
			c-0.7,0.1-1.2,0.6-1.1,1.3s0.7,1.2,1.3,1.1s1.2-0.6,1.1-1.3C248.5,76.9,247.9,76.4,247.2,76.4z M259.9,70.3
			c-0.7,0.1-1.2,0.6-1.1,1.3c0.1,0.7,0.7,1.2,1.3,1.1s1.2-0.6,1.1-1.3C261.1,70.8,260.5,70.3,259.9,70.3z M269.5,60.2
			c-0.7,0.1-1.2,0.7-1.1,1.3s0.7,1.2,1.3,1.1s1.2-0.7,1.1-1.3S270.2,60.1,269.5,60.2z M274.4,48.3c-0.7,0.1-1.2,0.7-1.1,1.3
			s0.7,1.2,1.3,1.1s1.2-0.7,1.1-1.3S275,48.2,274.4,48.3z M194.1,25c0.1,0.7,0.7,1.2,1.3,1.1s1.2-0.7,1.1-1.3s-0.7-1.2-1.3-1.1
			C194.6,23.7,194.1,24.3,194.1,25z M205.1,16c0.7-0.1,1.2-0.7,1.1-1.3s-0.7-1.2-1.3-1.1s-1.2,0.7-1.1,1.3S204.4,16.1,205.1,16z
			 M217.5,9.9c0.7-0.1,1.2-0.7,1.1-1.3s-0.7-1.2-1.3-1.1s-1.2,0.7-1.1,1.3S216.8,9.9,217.5,9.9z M194.7,17.8c0.4,0,0.6-0.3,0.6-0.7
			s-0.4-0.6-0.7-0.6c-0.4,0-0.6,0.3-0.6,0.7C194.1,17.5,194.4,17.8,194.7,17.8z M186.7,59.2c0.4,0,0.6-0.3,0.6-0.7s-0.4-0.6-0.7-0.6
			c-0.4,0-0.6,0.3-0.6,0.7C186,59,186.3,59.2,186.7,59.2z M194.7,69.8c0.4,0,0.6-0.3,0.6-0.7s-0.4-0.6-0.7-0.6
			c-0.4,0-0.6,0.3-0.6,0.7C194.1,69.6,194.4,69.9,194.7,69.8z M207.5,78.9c0.4,0,0.6-0.3,0.6-0.7s-0.4-0.6-0.7-0.6s-0.6,0.3-0.6,0.7
			C206.9,78.7,207.2,79,207.5,78.9z M223.8,84.8c0.4,0,0.6-0.3,0.6-0.7s-0.4-0.6-0.7-0.6s-0.6,0.3-0.6,0.7
			C223.2,84.5,223.5,84.8,223.8,84.8z M241,84.8c0.4,0,0.6-0.3,0.6-0.7s-0.4-0.6-0.7-0.6s-0.6,0.3-0.6,0.7
			C240.3,84.5,240.6,84.8,241,84.8z M257.3,78.9c0.4,0,0.6-0.3,0.6-0.7s-0.4-0.6-0.7-0.6s-0.6,0.3-0.6,0.7S256.9,79,257.3,78.9z
			 M270.3,70c0.4,0,0.6-0.3,0.6-0.7s-0.4-0.6-0.7-0.6c-0.4,0-0.6,0.3-0.6,0.7C269.6,69.7,269.9,70,270.3,70z M278.1,59.2
			c0.4,0,0.6-0.3,0.6-0.7s-0.4-0.6-0.7-0.6c-0.4,0-0.6,0.3-0.6,0.7C277.4,59,277.8,59.2,278.1,59.2z M207.5,8.7
			c0.4,0,0.6-0.3,0.6-0.7s-0.4-0.6-0.7-0.6c-0.4,0-0.6,0.3-0.6,0.7C206.9,8.4,207.2,8.7,207.5,8.7z M223.8,2.8
			c0.4,0,0.6-0.3,0.6-0.7s-0.4-0.6-0.7-0.6s-0.6,0.3-0.6,0.7C223.2,2.6,223.5,2.8,223.8,2.8z M205.4,40.7c1.3,0,2.4-1.1,2.4-2.4
			s-1.1-2.4-2.4-2.4S203,37,203,38.3C203,39.6,204.1,40.7,205.4,40.7z M208.1,31.7c1.3,0,2.4-1.1,2.4-2.4s-1.1-2.4-2.4-2.4
			s-2.4,1.1-2.4,2.4S206.7,31.7,208.1,31.7z M214.5,24.6c1.3,0,2.4-1.1,2.4-2.4s-1.1-2.4-2.4-2.4s-2.4,1.1-2.4,2.4
			S213.2,24.6,214.5,24.6z M222.6,19.6c1.3,0,2.4-1.1,2.4-2.4s-1.1-2.4-2.4-2.4s-2.4,1.1-2.4,2.4S221.3,19.6,222.6,19.6z
			 M232.3,18.2c1.3,0,2.4-1.1,2.4-2.4s-1.1-2.4-2.4-2.4s-2.4,1.1-2.4,2.4S231,18.2,232.3,18.2z M232.3,73.1c1.3,0,2.4-1.1,2.4-2.4
			s-1.1-2.4-2.4-2.4s-2.4,1.1-2.4,2.4S231,73.1,232.3,73.1z M204.9,20.3c-1.1,0-1.9,0.8-1.9,1.9s0.9,1.9,1.9,1.9s1.9-0.8,1.9-1.9
			S206,20.3,204.9,20.3z M198.8,30.2c-1.1,0-1.9,0.8-1.9,1.9s0.9,1.9,1.9,1.9s1.9-0.8,1.9-1.9S199.9,30.2,198.8,30.2z M196.5,41.3
			c-1.1,0-1.9,0.8-1.9,1.9c0,1.1,0.9,1.9,1.9,1.9s1.9-0.8,1.9-1.9C198.4,42.2,197.6,41.3,196.5,41.3z M214.2,12.8
			c-1.1,0-1.9,0.8-1.9,1.9s0.9,1.9,1.9,1.9s1.9-0.8,1.9-1.9S215.3,12.8,214.2,12.8z M226.3,8.8c-1.1,0-1.9,0.8-1.9,1.9
			s0.9,1.9,1.9,1.9s1.9-0.8,1.9-1.9S227.4,8.8,226.3,8.8z M232.3,5.4c-0.7,0-1.2,0.5-1.2,1.2s0.6,1.2,1.2,1.2c0.7,0,1.2-0.6,1.2-1.2
			S233,5.4,232.3,5.4z M269.5,23.7c-0.7-0.1-1.3,0.4-1.3,1.1s0.5,1.3,1.1,1.3c0.7,0.1,1.3-0.4,1.3-1.1
			C270.6,24.3,270.1,23.7,269.5,23.7z M261,14.9c0.1-0.7-0.5-1.3-1.1-1.3c-0.7-0.1-1.3,0.4-1.3,1.1s0.5,1.3,1.1,1.3
			C260.3,16.1,260.9,15.6,261,14.9z M248.5,8.8c0.1-0.7-0.4-1.3-1.1-1.3c-0.7-0.1-1.3,0.4-1.3,1.1s0.4,1.3,1.1,1.3
			C247.9,9.9,248.5,9.4,248.5,8.8z M270.7,17.2c0-0.4-0.2-0.7-0.6-0.7s-0.7,0.2-0.7,0.6c0,0.4,0.2,0.7,0.6,0.7
			C270.3,17.8,270.6,17.5,270.7,17.2z M257.9,8.1c0-0.4-0.2-0.7-0.6-0.7s-0.7,0.2-0.7,0.6c0,0.4,0.2,0.7,0.6,0.7
			C257.5,8.7,257.8,8.4,257.9,8.1z M241.6,2.2c0-0.4-0.2-0.7-0.6-0.7c-0.4,0-0.7,0.2-0.7,0.6c0,0.4,0.2,0.7,0.6,0.7
			C241.2,2.8,241.5,2.6,241.6,2.2z M259.1,29.3c0-1.3-1.1-2.4-2.4-2.4c-1.3,0-2.4,1.1-2.4,2.4s1.1,2.4,2.4,2.4
			C258,31.7,259.1,30.7,259.1,29.3z M252.6,22.2c0-1.3-1.1-2.4-2.4-2.4s-2.4,1.1-2.4,2.4s1.1,2.4,2.4,2.4
			C251.5,24.6,252.6,23.5,252.6,22.2z M244.5,17.2c0-1.3-1.1-2.4-2.4-2.4s-2.4,1.1-2.4,2.4s1.1,2.4,2.4,2.4
			C243.4,19.6,244.5,18.5,244.5,17.2z M257.9,22.2c0,1.1,0.9,1.9,1.9,1.9s1.9-0.8,1.9-1.9s-0.9-1.9-1.9-1.9S257.9,21.1,257.9,22.2z
			 M258,64.1c0,1.1,0.9,1.9,1.9,1.9s1.9-0.8,1.9-1.9s-0.9-1.9-1.9-1.9S258,63.1,258,64.1z M248.6,71.6c0,1.1,0.9,1.9,1.9,1.9
			s1.9-0.9,1.9-1.9c0-1.1-0.9-1.9-1.9-1.9S248.6,70.6,248.6,71.6z M236.7,75.3c0,1.1,0.9,1.9,1.9,1.9s1.9-0.9,1.9-1.9
			c0-1.1-0.9-1.9-1.9-1.9S236.7,74.3,236.7,75.3z M224.4,75.5c0,1.1,0.9,1.9,1.9,1.9s1.9-0.9,1.9-1.9c0-1.1-0.9-1.9-1.9-1.9
			S224.4,74.4,224.4,75.5z M212.4,71.9c0,1.1,0.9,1.9,1.9,1.9s1.9-0.9,1.9-1.9c0-1.1-0.9-1.9-1.9-1.9S212.4,70.9,212.4,71.9z
			 M203,64.1c0,1.1,0.9,1.9,1.9,1.9s1.9-0.8,1.9-1.9c0-1.1-0.9-1.9-1.9-1.9S203,63,203,64.1z M248.6,14.7c0,1.1,0.9,1.9,1.9,1.9
			s1.9-0.8,1.9-1.9s-0.9-1.9-1.9-1.9S248.6,13.7,248.6,14.7z M236.5,10.7c0,1.1,0.9,1.9,1.9,1.9s1.9-0.8,1.9-1.9s-0.9-1.9-1.9-1.9
			S236.5,9.6,236.5,10.7z M278.1,31.6c0.4,0,0.6-0.3,0.6-0.7s-0.4-0.6-0.7-0.6c-0.4,0-0.6,0.3-0.6,0.7
			C277.4,31.4,277.8,31.7,278.1,31.6z"/>
	</g>
</g>
<line class="st1" x1="5.8" y1="67.6" x2="178.2" y2="67.6"/>
<line class="st1" x1="284.6" y1="67.6" x2="403.5" y2="67.6"/>
<path class="st0" d="M17.4,80.6c-0.2-0.5-0.4-1.2-1.7-1.2H5.2c5.6,11.2,11.1,22.1,16.7,33.3c2-3.7,3.8-7,5.5-10.3
	c0.3-0.5,0.2-1.6-0.1-2.1C24.1,93.6,20.7,87.1,17.4,80.6z"/>
<path class="st2" d="M33.2,91.4L40,79.3H25.5c0,0,4.5,1.9,6.1,4.4C33.3,86.6,33.2,91.4,33.2,91.4z"/>
<g>
	<path class="st0" d="M49.3,114.3c-2.7,0-4.9-0.4-6.7-1.1c-1.8-0.8-3.1-2-4-3.6c-0.9-1.7-1.3-3.9-1.3-6.6c0-2.6,0.4-4.7,1.2-6.3
		s2-2.9,3.5-3.7s3.3-1.2,5.4-1.2c2,0,3.8,0.4,5.2,1.2c1.4,0.8,2.5,2,3.3,3.7c0.8,1.7,1.1,3.8,1.1,6.4v1.2H40.4v-2.6h13.1l-0.8,0.4
		c0-1.9-0.2-3.4-0.6-4.5s-1-1.9-1.8-2.3s-1.7-0.7-2.8-0.7c-1.1,0-2,0.2-2.8,0.7s-1.4,1.2-1.9,2.3c-0.4,1.1-0.7,2.6-0.7,4.6v1.6
		c0,1.8,0.3,3.3,0.8,4.4s1.4,1.9,2.5,2.3c1.1,0.5,2.6,0.7,4.4,0.7c0.9,0,1.9-0.1,2.8-0.2c1-0.1,2-0.3,3.1-0.6v3.3
		c-1.2,0.3-2.3,0.5-3.4,0.6C51.5,114.2,50.4,114.3,49.3,114.3z"/>
	<path class="st0" d="M61.8,113.9V92h4l0.3,2.4h0.3c0.9-0.9,2-1.5,3.3-2c1.2-0.5,2.6-0.7,4-0.7c1.5,0,2.8,0.2,4,0.7s2.1,1.3,2.7,2.4
		c0.7,1.1,1,2.6,1,4.4v14.6h-4.7V99.5c0-1.6-0.4-2.7-1.2-3.3s-1.8-0.9-3.2-0.9c-0.6,0-1.3,0.1-2,0.2s-1.4,0.4-2,0.8
		c-0.7,0.4-1.2,0.9-1.7,1.5v16.1L61.8,113.9L61.8,113.9z"/>
	<path class="st0" d="M84.3,95.3V92h16.2v3.3H84.3z M96.9,114.3c-2.6,0-4.6-0.6-6-1.7s-2.2-3-2.2-5.6V92l0.8-7.9h3.9v22.2
		c0,1.7,0.4,2.8,1.1,3.5s1.9,1,3.5,1c0.4,0,0.8,0,1.3-0.1s0.9-0.1,1.5-0.2v3.4c-0.6,0.1-1.2,0.2-1.9,0.3
		C98.2,114.2,97.6,114.3,96.9,114.3z"/>
	<path class="st0" d="M111.7,114.3c-1.5,0-2.8-0.2-3.9-0.7s-2.1-1.3-2.7-2.4s-1-2.6-1-4.5V92h4.7v14.4c0,1.6,0.4,2.7,1.2,3.3
		c0.8,0.6,1.8,0.9,3.1,0.9c0.6,0,1.2-0.1,1.9-0.2s1.4-0.4,2-0.8s1.2-0.9,1.7-1.5V92h4.7v21.8h-4l-0.3-2.3h-0.3c-1,0.9-2.1,1.6-3.3,2
		C114.4,114,113.1,114.3,111.7,114.3z"/>
	<path class="st0" d="M129.5,113.9V92h3.9l0.4,2.9h0.3c0.8-1.1,1.8-1.9,3-2.4c1.2-0.5,2.5-0.8,3.9-0.8c0.4,0,0.7,0,1,0
		s0.6,0.1,0.8,0.1v3.8c-0.4-0.1-0.7-0.1-1-0.1c-0.3,0-0.7,0-1.1,0c-0.8,0-1.6,0.1-2.4,0.3c-0.8,0.2-1.6,0.5-2.2,0.9
		c-0.7,0.4-1.3,0.9-1.7,1.6v15.5L129.5,113.9L129.5,113.9z"/>
	<path class="st0" d="M156.3,114.3c-2.7,0-4.9-0.4-6.7-1.1s-3.1-2-4-3.6c-0.9-1.7-1.3-3.9-1.3-6.6c0-2.6,0.4-4.7,1.2-6.3
		s2-2.9,3.5-3.7s3.3-1.2,5.4-1.2c2,0,3.8,0.4,5.2,1.2c1.4,0.8,2.5,2,3.3,3.7c0.8,1.7,1.1,3.8,1.1,6.4v1.2h-16.8v-2.6h13.1l-0.8,0.4
		c0-1.9-0.2-3.4-0.6-4.5s-1-1.9-1.8-2.3s-1.7-0.7-2.8-0.7c-1.1,0-2,0.2-2.8,0.7s-1.4,1.2-1.9,2.3s-0.7,2.6-0.7,4.6v1.6
		c0,1.8,0.3,3.3,0.8,4.4s1.4,1.9,2.5,2.3c1.1,0.5,2.6,0.7,4.4,0.7c0.9,0,1.9-0.1,2.8-0.2c1-0.1,2-0.3,3.1-0.6v3.3
		c-1.2,0.3-2.3,0.5-3.4,0.6C158.4,114.2,157.4,114.3,156.3,114.3z"/>
	<path class="st0" d="M174.6,114.3c-1.2,0-2.4-0.1-3.5-0.2c-1.1-0.1-2.2-0.4-3.3-0.7v-3.2c1.1,0.3,2.2,0.5,3.4,0.7
		c1.1,0.1,2.2,0.2,3.4,0.2c1.9,0,3.2-0.3,4.1-0.8s1.3-1.4,1.3-2.4c0-0.9-0.3-1.6-0.8-2s-1.3-0.8-2.5-1l-3.2-0.6
		c-2.2-0.4-3.8-1.2-4.8-2.1c-1-1-1.5-2.3-1.5-3.9c0-1.9,0.9-3.5,2.5-4.7c1.7-1.2,4.2-1.8,7.6-1.8c1.1,0,2.1,0.1,3,0.1
		c0.9,0.1,1.9,0.2,2.7,0.4v3.2c-0.9-0.2-1.9-0.4-2.8-0.5s-1.8-0.1-2.8-0.1c-1.4,0-2.6,0.1-3.4,0.4c-0.9,0.3-1.5,0.7-1.8,1.2
		c-0.4,0.5-0.6,1-0.6,1.6c0,0.8,0.2,1.4,0.7,1.9c0.5,0.5,1.3,0.8,2.4,1.1l3.2,0.6c2.2,0.4,3.8,1.1,4.8,2.1c1,1,1.5,2.3,1.5,3.9
		c0,2-0.9,3.6-2.6,4.8C180.2,113.7,177.7,114.3,174.6,114.3z"/>
</g>
</svg>
